{
  "accessors": [
    {
      "bufferView": 2,
      "componentType": 5126,
      "count": 9226,
      "max": [
        4236.9033203125,
        -7.850100040435791,
        2776.291015625
      ],
      "min": [
        -4236.9033203125,
        -9572.634765625,
        -2284.675048828125
      ],
      "type": "VEC3"
    },
    {
      "bufferView": 2,
      "byteOffset": 110712,
      "componentType": 5126,
      "count": 9226,
      "max": [
        0.9999867081642151,
        1.0,
        0.9998750686645508
      ],
      "min": [
        -0.9999867081642151,
        -0.9998579621315002,
        -0.9999811053276062
      ],
      "type": "VEC3"
    },
    {
      "bufferView": 1,
      "componentType": 5126,
      "count": 9226,
      "max": [
        0.9902340173721313,
        0.9902340173721313
      ],
      "min": [
        0.00291300006210804,
        0.005491018295288086
      ],
      "type": "VEC2"
    },
    {
      "bufferView": 1,
      "byteOffset": 73808,
      "componentType": 5126,
      "count": 9226,
      "max": [
        0.9902340173721313,
        0.9902340173721313
      ],
      "min": [
        0.00291300006210804,
        0.005491018295288086
      ],
      "type": "VEC2"
    },
    {
      "bufferView": 0,
      "componentType": 5125,
      "count": 46260,
      "type": "SCALAR"
    },
    {
      "bufferView": 2,
      "byteOffset": 221424,
      "componentType": 5126,
      "count": 190,
      "max": [
        1804.4549560546875,
        -6067.48095703125,
        -198.32798767089844
      ],
      "min": [
        -1804.4549560546875,
        -7344.873046875,
        -1571.581298828125
      ],
      "type": "VEC3"
    },
    {
      "bufferView": 2,
      "byteOffset": 223704,
      "componentType": 5126,
      "count": 190,
      "max": [
        0.9993899464607239,
        0.36552900075912476,
        0.19758185744285583
      ],
      "min": [
        -0.9993898272514343,
        -0.8265944719314575,
        -0.9384562373161316
      ],
      "type": "VEC3"
    },
    {
      "bufferView": 1,
      "byteOffset": 147616,
      "componentType": 5126,
      "count": 190,
      "max": [
        0.978763997554779,
        0.9867969751358032
      ],
      "min": [
        0.023886999115347862,
        0.019345998764038086
      ],
      "type": "VEC2"
    },
    {
      "bufferView": 0,
      "byteOffset": 185040,
      "componentType": 5125,
      "count": 1008,
      "type": "SCALAR"
    }
  ],
  "asset": {
    "extras": {
      "author": "dithyapr1 (https://sketchfab.com/dithyapr1)",
      "license": "CC-BY-4.0 (http://creativecommons.org/licenses/by/4.0/)",
      "source": "https://sketchfab.com/3d-models/stitch-5f5118a1443a4047ab6e3142060bc235",
      "title": "Stitch"
    },
    "generator": "Sketchfab-12.68.0",
    "version": "2.0"
  },
  "bufferViews": [
    {
      "buffer": 0,
      "byteLength": 189072,
      "name": "floatBufferViews",
      "target": 34963
    },
    {
      "buffer": 0,
      "byteLength": 149136,
      "byteOffset": 189072,
      "byteStride": 8,
      "name": "floatBufferViews",
      "target": 34962
    },
    {
      "buffer": 0,
      "byteLength": 225984,
      "byteOffset": 338208,
      "byteStride": 12,
      "name": "floatBufferViews",
      "target": 34962
    }
  ],
  "buffers": [
    {
      "byteLength": 564192,
      "uri": "scene.bin"
    }
  ],
  "extensionsUsed": [
    "KHR_materials_unlit"
  ],
  "images": [
    {
      "uri": "textures/initialShadingGroup.001_baseColor.png"
    },
    {
      "uri": "textures/lambert2SG.001_baseColor.png"
    }
  ],
  "materials": [
    {
      "doubleSided": true,
      "extensions": {
        "KHR_materials_unlit": {}
      },
      "name": "initialShadingGroup.001",
      "pbrMetallicRoughness": {
        "baseColorTexture": {
          "index": 0
        },
        "metallicFactor": 0.0
      }
    },
    {
      "doubleSided": true,
      "extensions": {
        "KHR_materials_unlit": {}
      },
      "name": "lambert2SG.001",
      "pbrMetallicRoughness": {
        "baseColorTexture": {
          "index": 1
        },
        "metallicFactor": 0.0
      }
    }
  ],
  "meshes": [
    {
      "name": "Object_0",
      "primitives": [
        {
          "attributes": {
            "NORMAL": 1,
            "POSITION": 0,
            "TEXCOORD_0": 2,
            "TEXCOORD_1": 3
          },
          "indices": 4,
          "material": 0,
          "mode": 4
        }
      ]
    },
    {
      "name": "Object_1",
      "primitives": [
        {
          "attributes": {
            "NORMAL": 6,
            "POSITION": 5,
            "TEXCOORD_0": 7
          },
          "indices": 8,
          "material": 1,
          "mode": 4
        }
      ]
    }
  ],
  "nodes": [
    {
      "children": [
        1
      ],
      "matrix": [
        0.008333333767950535,
        0.0,
        0.0,
        0.0,
        0.0,
        1.850371804212999e-18,
        -0.008333333767950535,
        0.0,
        0.0,
        0.008333333767950535,
        1.850371804212999e-18,
        0.0,
        0.0,
        9.55026962401461e-07,
        4.0790305320115294e-06,
        1.0
      ],
      "name": "Sketchfab_model"
    },
    {
      "children": [
        2
      ],
      "name": "root"
    },
    {
      "children": [
        3
      ],
      "matrix": [
        1.0,
        0.0,
        0.0,
        0.0,
        0.0,
        2.220446049250313e-16,
        1.0,
        0.0,
        0.0,
        -1.0,
        2.220446049250313e-16,
        0.0,
        0.0,
        0.0,
        0.0,
        1.0
      ],
      "name": "GLTF_SceneRootNode"
    },
    {
      "children": [
        4,
        5
      ],
      "matrix": [
        0.009999999776482582,
        0.0,
        -0.0,
        0.0,
        -0.0,
        -0.009999999776482466,
        -1.5099579915306658e-09,
        0.0,
        0.0,
        1.5099579915306658e-09,
        -0.009999999776482466,
        0.0,
        0.0,
        0.0,
        0.0,
        1.0
      ],
      "name": "stitch_mesh_0"
    },
    {
      "mesh": 0,
      "name": "Object_4"
    },
    {
      "mesh": 1,
      "name": "Object_5"
    }
  ],
  "samplers": [
    {
      "magFilter": 9729,
      "minFilter": 9987,
      "wrapS": 10497,
      "wrapT": 10497
    }
  ],
  "scene": 0,
  "scenes": [
    {
      "name": "Sketchfab_Scene",
      "nodes": [
        0
      ]
    }
  ],
  "textures": [
    {
      "sampler": 0,
      "source": 0
    },
    {
      "sampler": 0,
      "source": 1
    }
  ]
}
